<?xml version="1.0" encoding="utf-8"?>
<!-- Generator: Adobe Illustrator 19.0.0, SVG Export Plug-In . SVG Version: 6.00 Build 0)  -->
<svg version="1.1" id="Layer_1" xmlns="http://www.w3.org/2000/svg" xmlns:xlink="http://www.w3.org/1999/xlink" x="0px" y="0px"
	 viewBox="0 0 612 221" style="enable-background:new 0 0 612 221;" xml:space="preserve">
<style type="text/css">
	.st0{fill:#AFAFAF;}
	.st1{fill:#627769;}
	.st2{fill:#949B97;}
</style>
<g>
	<path class="st0" d="M151.8,171.9c-12.2-35.2-24.2-69.9-36.1-104.7c-0.3-0.1-0.6-0.1-0.9-0.2c-12.2,35-24.3,70-36.5,105
		c-3.1,0-5.8,0-8.9,0c-13.3-39-26.5-78-39.9-117.3c3.1-0.6,5.7-0.3,8.6-0.3c11.8,35,23.7,70,35.5,105c0.3,0,0.6,0.1,0.9,0.1
		c12.2-35,24.4-70,36.6-105c2.7,0,5.2,0,8.1,0c12.1,35.1,24.3,70.3,36.5,105.5c0.2,0,0.5,0,0.7,0c12-35.1,24-70.3,35.9-105.4
		c2.7,0,5.2,0,8.1,0c-13.3,39.3-26.5,78.3-39.8,117.5C157.7,172.2,154.8,172.5,151.8,171.9z"/>
	<path class="st1" d="M364.9,172.1c0-19.6,0-39,0-58.6c2.7,0,5.2,0,8.2,0c0,17,0,33.9,0,50.8c0.6,0.2,0.9,0.3,1.2,0.3
		c14.8-0.2,29.5,0.6,44.3-0.5c30.4-2.3,50.9-28.1,46.7-58.2c-3.5-25-21.6-40.1-44-43.3c-8.4-1.2-16.8-0.7-25.3-0.7
		c-10.2-0.1-20.5,0-30.8,0c-0.9-2.5-0.2-4.8-0.5-7.4c2.9,0,5.5,0,8.2,0c14.6,0,29.1-0.2,43.7,0.2c24.6,0.7,46,15.6,53.7,37.4
		c9.1,25.7,2.1,57.8-27.1,72.8c-9.5,4.9-19.6,7-30.2,7.1C397.1,172.2,381.1,172.1,364.9,172.1z"/>
	<path class="st1" d="M584.2,64c-1.1,2.3-2.1,4.4-3.2,6.7c-6.2-3.9-12.6-6.8-19.5-8.3c-10.6-2.2-21.2-2.4-31.4,1.6
		c-11.4,4.3-17.1,15.6-13.9,26.7c1.8,6.3,6.6,9.9,12.1,12.5c7.1,3.3,14.7,5,22.2,6.9c6.4,1.6,12.9,3.2,19,5.7
		c9.4,3.9,17,9.6,19,20.5c2.2,11.7-3.3,23.9-13.6,30c-6.1,3.6-12.7,5.5-19.7,6.2c-16.7,1.5-32.6-0.9-46.6-11
		c-1.2-0.9-2.3-1.9-3.4-2.8c-0.5-0.5-1-1-1.6-1.7c1.2-2,2.4-4,3.7-6.2c6,6,13.1,9.8,20.9,12.1c11.7,3.4,23.5,3.7,35.2,0.4
		c12.3-3.5,18.5-13.3,16.5-25.1c-1.3-7.6-6.8-11.7-13.1-14.7c-7.4-3.4-15.4-5-23.2-7c-6.7-1.7-13.5-3.4-19.8-6.3
		c-10.2-4.6-16.7-12-17.2-23.6c-0.4-11.5,4.2-20.4,13.9-26.6c8.4-5.4,18-6.5,27.6-6.6c11.8-0.1,22.9,3,33.2,8.8
		C582.4,62.7,583.1,63.3,584.2,64z"/>
	<path class="st2" d="M331.2,172c-3.3,0-6,0-9,0c-16.4-35.9-32.8-71.9-49.5-108.7c-16.6,36.7-33,72.7-49.3,108.7c-2.9,0-5.7,0-9,0
		c18.1-39.4,36.1-78.5,54.1-117.6c2.9,0,5.6,0,8.7,0C295.1,93.5,313,132.6,331.2,172z"/>
</g>
</svg>
