<?xml version="1.0" encoding="utf-8"?>
<!-- Generator: Adobe Illustrator 19.0.0, SVG Export Plug-In . SVG Version: 6.00 Build 0)  -->
<svg version="1.1" xmlns="http://www.w3.org/2000/svg" xmlns:xlink="http://www.w3.org/1999/xlink" x="0px" y="0px"
	 viewBox="0 0 612 792" style="enable-background:new 0 0 612 792;" xml:space="preserve">
<style type="text/css">
	.st0{opacity:7.000000e-002;}
	.st1{fill:url(#SVGID_1_);}
	.st2{fill:url(#SVGID_2_);}
	.st3{fill:#F2F2F2;}
	.st4{fill:#AFAFAF;}
	.st5{fill:#627769;}
	.st6{fill:#949B97;}
	.st7{fill:#E6E6E6;}
	.st8{fill:url(#SVGID_3_);}
	.st9{fill:url(#SVGID_4_);}
	.st10{fill:url(#SVGID_5_);}
	.st11{fill:url(#SVGID_6_);}
</style>
<g id="Layer_1">
	<g class="st0">
		<path d="M11.6,341.1c46.4-77.3,92.2-153.5,138-229.8c0.5,0,0.9,0,1.4,0c45.9,76.3,91.7,152.7,138,229.8
			c-46.3,27.5-92.4,54.8-138.7,82.3C104,395.9,57.9,368.6,11.6,341.1z M19.7,334.5c0.3,0.3,0.6,0.6,0.9,1
			c42.6-19.4,85.2-38.9,127.7-58.2c0-52.2,0-103.8,0-155.4c-0.2-0.1-0.5-0.2-0.7-0.2C105,192.5,62.3,263.5,19.7,334.5z M279.8,335.4
			c0.3-0.3,0.6-0.6,0.9-0.9c-42.6-70.9-85.1-141.9-127.7-212.8c-0.3,0.2-0.6,0.3-0.9,0.5c0,51.7,0,103.3,0,155.1
			C194.9,296.7,237.4,316,279.8,335.4z M282.5,340.7c-43.8-20-86.8-39.6-130.2-59.5c0,45.8,0,90.9,0,136.8
			C195.8,392.1,238.7,366.7,282.5,340.7z M148.3,281.1C104.8,301,61.8,320.6,18,340.6c43.8,26,86.8,51.5,130.3,77.4
			C148.3,372,148.3,327,148.3,281.1z"/>
		<path d="M11.9,363c46.1,27.3,92.1,54.7,138.4,82.1c46.2-27.4,92.3-54.7,138.3-82c0.3,0.3,0.7,0.6,1,0.9c-0.5,1.1-0.8,2.3-1.5,3.2
			c-12.5,17.6-25,35.2-37.5,52.8c-17.5,24.8-35,49.5-52.4,74.3c-14.9,21.1-29.8,42.3-44.8,63.4c-0.8,1.2-1.8,2.2-3.4,4.2
			c-46.7-66.1-93.1-131.8-139.6-197.4C11,363.9,11.4,363.5,11.9,363z M278.5,374.5c-0.2-0.3-0.5-0.6-0.7-0.9
			c-42,24.9-83.9,49.8-125.7,74.5c0,34.9,0,69.3,0,103.6c0.3,0.1,0.5,0.2,0.8,0.3C194.8,492.9,236.7,433.7,278.5,374.5z M22.8,373.7
			c-0.3,0.3-0.5,0.6-0.8,0.9c41.8,59.2,83.7,118.3,125.5,177.5c0.3-0.1,0.5-0.3,0.8-0.4c0-34.5,0-68.9,0-103.6
			C106.4,423.2,64.6,398.5,22.8,373.7z"/>
	</g>
	<g>
		<linearGradient id="SVGID_1_" gradientUnits="userSpaceOnUse" x1="587.0009" y1="397.0464" x2="179.9985" y2="397.0464">
			<stop  offset="0" style="stop-color:#FFFFFF"/>
			<stop  offset="2.043588e-007" style="stop-color:#E6E6E6"/>
			<stop  offset="0.2761" style="stop-color:#E2E2E2"/>
			<stop  offset="0.5611" style="stop-color:#D5D5D5"/>
			<stop  offset="0.8492" style="stop-color:#C1C1C1"/>
			<stop  offset="1" style="stop-color:#B3B3B3"/>
		</linearGradient>
		<path class="st1" d="M180,315.1c135.9,0,271.1,0,407,0c0,1.8,0,3.6,0,5.3c0,47.5,0,95,0,142.5c0,11.4-4.7,16.1-16,16.1
			c-125,0-250,0-375,0c-11.3,0-16-4.7-16-16.1c0-47.5,0-95,0-142.5C180,318.8,180,317.2,180,315.1z"/>
		<linearGradient id="SVGID_2_" gradientUnits="userSpaceOnUse" x1="587.0079" y1="246.384" x2="179.993" y2="246.384">
			<stop  offset="0" style="stop-color:#FFFFFF"/>
			<stop  offset="2.043588e-007" style="stop-color:#E6E6E6"/>
			<stop  offset="0.2761" style="stop-color:#E2E2E2"/>
			<stop  offset="0.5611" style="stop-color:#D5D5D5"/>
			<stop  offset="0.8492" style="stop-color:#C1C1C1"/>
			<stop  offset="1" style="stop-color:#B3B3B3"/>
		</linearGradient>
		<path class="st2" d="M587,282.8c-136,0-271.2,0-407,0c0-1.5,0-2.8,0-4.1c0-17.8,0-35.7,0-53.5c0-10.1,5-15.2,14.9-15.2
			c125.6,0,251.3,0,376.9,0c10.1,0,15.1,5,15.1,15C587,244.1,587,263.3,587,282.8z"/>
		<path class="st3" d="M562.8,342.4c-81.1,0-161.8,0-242.5,0c0,9.6,0,18.9,0,28.4c80.9,0,161.6,0,242.5,0
			C562.8,361.2,562.8,351.9,562.8,342.4z"/>
	</g>
	<g>
		<path class="st4" d="M376.1,448.5c-4.3-12.3-8.5-24.5-12.7-36.7c-0.1,0-0.2,0-0.3-0.1c-4.3,12.3-8.5,24.6-12.8,36.8
			c-1.1,0-2,0-3.1,0c-4.7-13.7-9.3-27.4-14-41.2c1.1-0.2,2-0.1,3-0.1c4.2,12.3,8.3,24.6,12.5,36.8c0.1,0,0.2,0,0.3,0.1
			c4.3-12.3,8.5-24.6,12.8-36.9c1,0,1.8,0,2.9,0c4.3,12.3,8.5,24.7,12.8,37c0.1,0,0.2,0,0.3,0c4.2-12.3,8.4-24.7,12.6-37
			c0.9,0,1.8,0,2.8,0c-4.7,13.8-9.3,27.5-14,41.2C378.2,448.6,377.1,448.7,376.1,448.5z"/>
		<path class="st5" d="M450.8,448.5c0-6.9,0-13.7,0-20.6c0.9,0,1.8,0,2.9,0c0,6,0,11.9,0,17.8c0.2,0.1,0.3,0.1,0.4,0.1
			c5.2-0.1,10.4,0.2,15.5-0.2c10.7-0.8,17.9-9.9,16.4-20.4c-1.2-8.8-7.6-14.1-15.5-15.2c-2.9-0.4-5.9-0.2-8.9-0.3
			c-3.6,0-7.2,0-10.8,0c-0.3-0.9-0.1-1.7-0.2-2.6c1,0,1.9,0,2.9,0c5.1,0,10.2-0.1,15.3,0.1c8.6,0.2,16.1,5.5,18.9,13.1
			c3.2,9,0.7,20.3-9.5,25.6c-3.3,1.7-6.9,2.5-10.6,2.5C462.2,448.6,456.6,448.5,450.8,448.5z"/>
		<path class="st5" d="M527.8,410.6c-0.4,0.8-0.7,1.5-1.1,2.4c-2.2-1.4-4.4-2.4-6.9-2.9c-3.7-0.8-7.4-0.8-11,0.5
			c-4,1.5-6,5.5-4.9,9.4c0.6,2.2,2.3,3.5,4.3,4.4c2.5,1.2,5.2,1.8,7.8,2.4c2.3,0.6,4.5,1.1,6.7,2c3.3,1.4,6,3.4,6.7,7.2
			c0.8,4.1-1.2,8.4-4.8,10.5c-2.1,1.3-4.5,1.9-6.9,2.2c-5.9,0.5-11.4-0.3-16.3-3.9c-0.4-0.3-0.8-0.7-1.2-1c-0.2-0.2-0.4-0.4-0.6-0.6
			c0.4-0.7,0.8-1.4,1.3-2.2c2.1,2.1,4.6,3.4,7.3,4.2c4.1,1.2,8.3,1.3,12.4,0.1c4.3-1.2,6.5-4.7,5.8-8.8c-0.5-2.7-2.4-4.1-4.6-5.1
			c-2.6-1.2-5.4-1.7-8.1-2.4c-2.4-0.6-4.7-1.2-7-2.2c-3.6-1.6-5.9-4.2-6-8.3c-0.1-4,1.5-7.2,4.9-9.4c3-1.9,6.3-2.3,9.7-2.3
			c4.1,0,8,1,11.6,3.1C527.2,410.1,527.5,410.3,527.8,410.6z"/>
		<path class="st6" d="M439,448.5c-1.2,0-2.1,0-3.2,0c-5.7-12.6-11.5-25.2-17.4-38.1c-5.8,12.9-11.6,25.5-17.3,38.2c-1,0-2,0-3.2,0
			c6.4-13.8,12.7-27.5,19-41.3c1,0,2,0,3,0C426.4,421,432.7,434.7,439,448.5z"/>
	</g>
</g>
<g id="Layer_2">
	<polygon class="st7" points="152.3,281.2 152.3,418 282.5,340.7 	"/>
	<polygon class="st7" points="148.3,418 18,340.6 148.3,281.1 	"/>
	<linearGradient id="SVGID_3_" gradientUnits="userSpaceOnUse" x1="84.0142" y1="335.4584" x2="84.0142" y2="121.5558">
		<stop  offset="0" style="stop-color:#E6E6E6"/>
		<stop  offset="0.1207" style="stop-color:#DFE2DF"/>
		<stop  offset="0.2941" style="stop-color:#CDD9CC"/>
		<stop  offset="0.4992" style="stop-color:#AFC8AD"/>
		<stop  offset="0.7287" style="stop-color:#85B282"/>
		<stop  offset="0.9756" style="stop-color:#51954B"/>
		<stop  offset="1" style="stop-color:#4B9245"/>
	</linearGradient>
	<polyline class="st8" points="147.6,121.6 19.7,334.5 20.6,335.5 148.3,277.2 148.3,121.8 	"/>
	<linearGradient id="SVGID_4_" gradientUnits="userSpaceOnUse" x1="216.4592" y1="335.3547" x2="216.4592" y2="121.6684">
		<stop  offset="0" style="stop-color:#E6E6E6"/>
		<stop  offset="0.1207" style="stop-color:#DFE2DF"/>
		<stop  offset="0.2941" style="stop-color:#CDD9CC"/>
		<stop  offset="0.4991" style="stop-color:#AFC8AD"/>
		<stop  offset="0.7285" style="stop-color:#86B282"/>
		<stop  offset="0.9754" style="stop-color:#51954B"/>
		<stop  offset="1" style="stop-color:#4B9245"/>
	</linearGradient>
	<polygon class="st9" points="152.2,277.2 152.2,122.1 153,121.7 280.7,334.5 279.8,335.4 	"/>
	<linearGradient id="SVGID_5_" gradientUnits="userSpaceOnUse" x1="215.3485" y1="373.6085" x2="215.3485" y2="552.1379">
		<stop  offset="0" style="stop-color:#FFFFFF"/>
		<stop  offset="2.043588e-007" style="stop-color:#E6E6E6"/>
		<stop  offset="0.1531" style="stop-color:#E2E4E2"/>
		<stop  offset="0.3112" style="stop-color:#D6DDD5"/>
		<stop  offset="0.4717" style="stop-color:#C2D3C1"/>
		<stop  offset="0.6338" style="stop-color:#A6C3A4"/>
		<stop  offset="0.7972" style="stop-color:#82B07E"/>
		<stop  offset="0.9596" style="stop-color:#579851"/>
		<stop  offset="1" style="stop-color:#4B9245"/>
	</linearGradient>
	<polygon class="st10" points="152.2,551.8 152.2,448.1 277.8,373.6 278.5,374.5 153,552.1 	"/>
	<linearGradient id="SVGID_6_" gradientUnits="userSpaceOnUse" x1="85.2064" y1="373.6864" x2="85.2064" y2="552.071">
		<stop  offset="0" style="stop-color:#E6E6E6"/>
		<stop  offset="0.1531" style="stop-color:#E2E4E2"/>
		<stop  offset="0.3112" style="stop-color:#D6DDD5"/>
		<stop  offset="0.4717" style="stop-color:#C2D3C1"/>
		<stop  offset="0.6338" style="stop-color:#A6C3A4"/>
		<stop  offset="0.7973" style="stop-color:#82B07E"/>
		<stop  offset="0.9596" style="stop-color:#579851"/>
		<stop  offset="1" style="stop-color:#4B9245"/>
	</linearGradient>
	<polygon class="st11" points="148.4,551.7 148.4,448.1 22.8,373.7 22.1,374.6 147.6,552.1 	"/>
</g>
</svg>
