<?xml version="1.0" encoding="utf-8"?>
<!-- Generator: Adobe Illustrator 19.0.0, SVG Export Plug-In . SVG Version: 6.00 Build 0)  -->
<svg version="1.1" xmlns="http://www.w3.org/2000/svg" xmlns:xlink="http://www.w3.org/1999/xlink" x="0px" y="0px"
	 viewBox="0 0 612 461.222" style="enable-background:new 0 0 612 461.222;" xml:space="preserve">
<style type="text/css">
	.st0{opacity:0.13;}
	.st1{fill:url(#SVGID_1_);}
	.st2{fill:url(#SVGID_2_);}
	.st3{fill:#F2F2F2;}
	.st4{fill:#AFAFAF;}
	.st5{fill:#627769;}
	.st6{fill:#949B97;}
	.st7{fill:#E6E6E6;}
	.st8{fill:url(#SVGID_3_);}
	.st9{fill:url(#SVGID_4_);}
	.st10{fill:url(#SVGID_5_);}
	.st11{fill:url(#SVGID_6_);}
</style>
<g id="Layer_1">
	<g class="st0">
		<path d="M11.563,235.258c46.406-77.26,92.204-153.509,138.002-229.757c0.465,0.001,0.93,0.002,1.396,0.003
			c45.868,76.348,91.737,152.695,138.037,229.761c-46.345,27.488-92.43,54.822-138.726,82.281
			C104.015,290.103,57.94,262.77,11.563,235.258z M19.722,228.71c0.298,0.318,0.597,0.635,0.895,0.953
			c42.604-19.434,85.208-38.867,127.69-58.245c0-52.181,0-103.804,0-155.428c-0.241-0.077-0.481-0.153-0.722-0.23
			C104.964,86.744,62.343,157.727,19.722,228.71z M279.832,229.559c0.297-0.3,0.594-0.6,0.891-0.901
			C238.165,157.73,195.608,86.802,153.05,15.873c-0.285,0.15-0.57,0.301-0.854,0.451c0,51.652,0,103.303,0,155.07
			C194.904,190.857,237.368,210.208,279.832,229.559z M282.493,234.855c-43.819-20.006-86.822-39.64-130.234-59.461
			c0,45.776,0,90.895,0,136.794C195.782,286.344,238.67,260.877,282.493,234.855z M148.349,175.319
			c-43.591,19.906-86.538,39.519-130.347,59.525c43.826,26.022,86.763,51.515,130.347,77.393
			C148.349,266.232,148.349,221.182,148.349,175.319z"/>
		<path d="M11.863,257.166c46.067,27.326,92.134,54.653,138.401,82.098c46.192-27.383,92.271-54.699,138.349-82.015
			c0.344,0.304,0.688,0.609,1.031,0.913c-0.483,1.084-0.801,2.285-1.473,3.235c-12.462,17.608-24.999,35.163-37.455,52.775
			c-17.506,24.752-34.955,49.543-52.435,74.313c-14.92,21.142-29.845,42.281-44.787,63.408c-0.834,1.179-1.84,2.236-3.442,4.162
			c-46.738-66.114-93.147-131.764-139.557-197.414C10.952,258.15,11.408,257.658,11.863,257.166z M278.537,268.743
			c-0.241-0.31-0.482-0.62-0.723-0.93c-41.953,24.887-83.907,49.775-125.655,74.541c0,34.897,0,69.273,0,103.648
			c0.265,0.114,0.53,0.227,0.795,0.341C194.816,387.143,236.676,327.943,278.537,268.743z M22.809,267.891
			c-0.25,0.293-0.501,0.586-0.751,0.879c41.832,59.169,83.665,118.337,125.497,177.506c0.267-0.137,0.534-0.273,0.801-0.41
			c0-34.473,0-68.947,0-103.565C106.406,317.438,64.607,292.665,22.809,267.891z"/>
	</g>
	<g>
		<linearGradient id="SVGID_1_" gradientUnits="userSpaceOnUse" x1="587.0009" y1="291.2512" x2="179.9985" y2="291.2512">
			<stop  offset="0" style="stop-color:#FFFFFF"/>
			<stop  offset="2.043588e-007" style="stop-color:#E6E6E6"/>
			<stop  offset="0.2761" style="stop-color:#E2E2E2"/>
			<stop  offset="0.5611" style="stop-color:#D5D5D5"/>
			<stop  offset="0.8492" style="stop-color:#C1C1C1"/>
			<stop  offset="1" style="stop-color:#B3B3B3"/>
		</linearGradient>
		<path class="st1" d="M180,209.297c135.932,0,271.071,0,407,0c0,1.829,0,3.574,0,5.32c0,47.495,0.003,94.99-0.003,142.485
			c-0.001,11.378-4.698,16.1-16.017,16.1c-124.987,0.004-249.973,0.004-374.96,0c-11.32,0-16.014-4.714-16.016-16.104
			c-0.009-47.495-0.004-94.99-0.004-142.485C180,212.987,180,211.361,180,209.297z"/>
		<linearGradient id="SVGID_2_" gradientUnits="userSpaceOnUse" x1="587.0079" y1="140.5888" x2="179.993" y2="140.5888">
			<stop  offset="0" style="stop-color:#FFFFFF"/>
			<stop  offset="2.043588e-007" style="stop-color:#E6E6E6"/>
			<stop  offset="0.2761" style="stop-color:#E2E2E2"/>
			<stop  offset="0.5611" style="stop-color:#D5D5D5"/>
			<stop  offset="0.8492" style="stop-color:#C1C1C1"/>
			<stop  offset="1" style="stop-color:#B3B3B3"/>
		</linearGradient>
		<path class="st2" d="M587,176.974c-135.979,0-271.232,0-406.999,0c0-1.507,0-2.79,0-4.073c0-17.831-0.021-35.662,0.008-53.493
			c0.016-10.116,4.963-15.191,14.916-15.192c125.649-0.017,251.299-0.017,376.948,0c10.1,0.001,15.1,4.988,15.118,14.991
			C587.024,138.339,587,157.471,587,176.974z"/>
		<path class="st3" d="M562.783,236.564c-81.14,0-161.833,0-242.54,0c0,9.626,0,18.89,0,28.37c80.936,0,161.63,0,242.54,0
			C562.783,255.401,562.783,246.137,562.783,236.564z"/>
	</g>
	<g>
		<path class="st4" d="M376.08,342.678c-4.266-12.35-8.477-24.54-12.688-36.731c-0.109-0.021-0.217-0.042-0.326-0.062
			c-4.267,12.276-8.534,24.552-12.806,36.842c-1.077,0-2.027,0-3.111,0c-4.651-13.68-9.311-27.386-13.994-41.158
			c1.084-0.226,1.998-0.116,3.029-0.102c4.155,12.275,8.312,24.556,12.469,36.838c0.109,0.017,0.219,0.034,0.328,0.051
			c4.275-12.283,8.549-24.566,12.831-36.87c0.954,0,1.834,0,2.86,0c4.258,12.317,8.526,24.665,12.794,37.013
			c0.086,0,0.173,0,0.259,0.001c4.206-12.333,8.411-24.667,12.614-36.993c0.945,0,1.813,0,2.835,0
			c-4.673,13.798-9.308,27.484-13.966,41.238C378.157,342.784,377.143,342.872,376.08,342.678z"/>
		<path class="st5" d="M450.85,342.738c0-6.893,0-13.695,0-20.555c0.934,0,1.84,0,2.873,0c0,5.96,0,11.897,0,17.822
			c0.223,0.064,0.325,0.12,0.427,0.119c5.181-0.07,10.367,0.214,15.544-0.174c10.661-0.801,17.854-9.866,16.379-20.439
			c-1.223-8.767-7.583-14.068-15.451-15.199c-2.948-0.424-5.911-0.235-8.868-0.261c-3.589-0.031-7.179-0.007-10.807-0.007
			c-0.303-0.862-0.064-1.696-0.16-2.608c1.024,0,1.944-0.003,2.863,0c5.109,0.017,10.221-0.068,15.327,0.075
			c8.628,0.241,16.139,5.471,18.855,13.137c3.2,9.031,0.725,20.27-9.502,25.562c-3.321,1.718-6.892,2.457-10.585,2.508
			C462.157,342.795,456.568,342.738,450.85,342.738z"/>
		<path class="st5" d="M527.841,304.797c-0.384,0.816-0.723,1.539-1.108,2.359c-2.176-1.374-4.416-2.398-6.855-2.912
			c-3.719-0.784-7.424-0.829-11.027,0.545c-3.996,1.525-6.012,5.465-4.87,9.372c0.646,2.21,2.316,3.475,4.264,4.396
			c2.482,1.173,5.159,1.771,7.806,2.438c2.255,0.568,4.521,1.127,6.669,2.016c3.306,1.369,5.965,3.366,6.681,7.206
			c0.763,4.09-1.15,8.387-4.774,10.525c-2.142,1.264-4.473,1.942-6.924,2.162c-5.869,0.528-11.434-0.309-16.339-3.875
			c-0.418-0.304-0.806-0.65-1.194-0.992c-0.19-0.167-0.35-0.368-0.567-0.599c0.426-0.707,0.839-1.391,1.312-2.175
			c2.114,2.114,4.584,3.45,7.35,4.245c4.107,1.181,8.252,1.3,12.362,0.128c4.306-1.227,6.507-4.658,5.808-8.801
			c-0.451-2.675-2.372-4.098-4.611-5.142c-2.589-1.207-5.397-1.75-8.149-2.449c-2.362-0.6-4.722-1.206-6.956-2.205
			c-3.594-1.607-5.871-4.201-6.02-8.288c-0.147-4.024,1.477-7.164,4.886-9.35c2.957-1.897,6.307-2.29,9.684-2.322
			c4.14-0.04,8.039,1.042,11.649,3.1C527.205,304.343,527.469,304.546,527.841,304.797z"/>
		<path class="st6" d="M439.037,342.725c-1.167,0-2.112,0-3.169,0c-5.74-12.607-11.496-25.249-17.363-38.138
			c-5.836,12.866-11.57,25.506-17.307,38.153c-1.032,0-1.986,0-3.171,0c6.363-13.83,12.674-27.548,18.99-41.274
			c1.022,0,1.976,0,3.039,0C426.354,315.156,432.665,328.874,439.037,342.725z"/>
	</g>
</g>
<g id="Layer_2">
	<polygon class="st7" points="152.259,175.395 152.259,312.188 282.493,234.855 	"/>
	<polygon class="st7" points="148.349,312.237 18.002,234.844 148.349,175.319 	"/>
	<linearGradient id="SVGID_3_" gradientUnits="userSpaceOnUse" x1="84.0142" y1="229.6632" x2="84.0142" y2="15.7606">
		<stop  offset="0" style="stop-color:#E6E6E6"/>
		<stop  offset="0.1207" style="stop-color:#DFE2DF"/>
		<stop  offset="0.2941" style="stop-color:#CDD9CC"/>
		<stop  offset="0.4992" style="stop-color:#AFC8AD"/>
		<stop  offset="0.7287" style="stop-color:#85B282"/>
		<stop  offset="0.9756" style="stop-color:#51954B"/>
		<stop  offset="1" style="stop-color:#4B9245"/>
	</linearGradient>
	<polyline class="st8" points="147.585,15.761 19.722,228.71 20.617,229.663 148.307,171.418 148.307,15.99 	"/>
	<linearGradient id="SVGID_4_" gradientUnits="userSpaceOnUse" x1="216.4592" y1="229.5594" x2="216.4592" y2="15.8732">
		<stop  offset="0" style="stop-color:#E6E6E6"/>
		<stop  offset="0.1207" style="stop-color:#DFE2DF"/>
		<stop  offset="0.2941" style="stop-color:#CDD9CC"/>
		<stop  offset="0.4991" style="stop-color:#AFC8AD"/>
		<stop  offset="0.7285" style="stop-color:#86B282"/>
		<stop  offset="0.9754" style="stop-color:#51954B"/>
		<stop  offset="1" style="stop-color:#4B9245"/>
	</linearGradient>
	<polygon class="st9" points="152.196,171.394 152.196,16.324 153.05,15.873 280.723,228.659 279.832,229.559 	"/>
	<linearGradient id="SVGID_5_" gradientUnits="userSpaceOnUse" x1="215.3485" y1="267.8133" x2="215.3485" y2="446.3427">
		<stop  offset="0" style="stop-color:#FFFFFF"/>
		<stop  offset="2.043588e-007" style="stop-color:#E6E6E6"/>
		<stop  offset="0.1531" style="stop-color:#E2E4E2"/>
		<stop  offset="0.3112" style="stop-color:#D6DDD5"/>
		<stop  offset="0.4717" style="stop-color:#C2D3C1"/>
		<stop  offset="0.6338" style="stop-color:#A6C3A4"/>
		<stop  offset="0.7972" style="stop-color:#82B07E"/>
		<stop  offset="0.9596" style="stop-color:#579851"/>
		<stop  offset="1" style="stop-color:#4B9245"/>
	</linearGradient>
	<polygon class="st10" points="152.16,446.002 152.16,342.354 277.814,267.813 278.537,268.743 152.955,446.343 	"/>
	<linearGradient id="SVGID_6_" gradientUnits="userSpaceOnUse" x1="85.2064" y1="267.8912" x2="85.2064" y2="446.2758">
		<stop  offset="0" style="stop-color:#E6E6E6"/>
		<stop  offset="0.1531" style="stop-color:#E2E4E2"/>
		<stop  offset="0.3112" style="stop-color:#D6DDD5"/>
		<stop  offset="0.4717" style="stop-color:#C2D3C1"/>
		<stop  offset="0.6338" style="stop-color:#A6C3A4"/>
		<stop  offset="0.7973" style="stop-color:#82B07E"/>
		<stop  offset="0.9596" style="stop-color:#579851"/>
		<stop  offset="1" style="stop-color:#4B9245"/>
	</linearGradient>
	<polygon class="st11" points="148.355,445.866 148.355,342.301 22.809,267.891 22.058,268.77 147.554,446.276 	"/>
</g>
</svg>
