<?xml version="1.0" ?><!DOCTYPE svg  PUBLIC '-//W3C//DTD SVG 1.1//EN'  'http://www.w3.org/Graphics/SVG/1.1/DTD/svg11.dtd'><svg enable-background="new 0 0 128 128" id="Слой_1" version="1.1" viewBox="0 0 128 128" xml:space="preserve" xmlns="http://www.w3.org/2000/svg" xmlns:xlink="http://www.w3.org/1999/xlink"><g><g><path d="    M26.5,103.7" fill="none" stroke="#373B39" stroke-linecap="round" stroke-linejoin="round" stroke-miterlimit="10" stroke-width="2.5"/></g><g><path d="M109,124H19c-8.3,0-15-6.7-15-15V49c0-8.3,6.7-15,15-15h90c8.3,0,15,6.7,15,15v60    C124,117.3,117.3,124,109,124z" fill="#C2C6C2"/></g><g><polyline fill="#F6F3E0" points="124,79.8 124,65.1 4,65.1 4,79.8   "/></g><g><path d="M124,66.3H4c-0.7,0-1.2-0.6-1.2-1.2V50.4c0-0.7,0.6-1.2,1.2-1.2h120c0.7,0,1.2,0.6,1.2,1.2v14.7    C125.2,65.8,124.7,66.3,124,66.3z M5.2,63.8h117.5V51.6H5.2V63.8z" fill="#0B1010"/></g><g><path d="M124,81.1H4c-0.7,0-1.2-0.6-1.2-1.2s0.6-1.2,1.2-1.2h120c0.7,0,1.2,0.6,1.2,1.2S124.7,81.1,124,81.1z" fill="#0B1010"/></g><g><path d="M124,66.3H4c-0.7,0-1.2-0.6-1.2-1.2s0.6-1.2,1.2-1.2h120c0.7,0,1.2,0.6,1.2,1.2S124.7,66.3,124,66.3z" fill="#0B1010"/></g><g><circle cx="104.5" cy="101.1" fill="#F9E373" r="12.5"/></g><g><path d="M104.5,114.8c-7.6,0-13.8-6.2-13.8-13.8s6.2-13.8,13.8-13.8s13.8,6.2,13.8,13.8S112.1,114.8,104.5,114.8z     M104.5,89.8c-6.2,0-11.2,5-11.2,11.2s5,11.2,11.2,11.2s11.2-5,11.2-11.2S110.7,89.8,104.5,89.8z" fill="#0B1010"/></g><g><circle cx="88" cy="101.1" fill="#E3725D" r="12.5"/></g><g><path d="M88,114.8c-7.6,0-13.8-6.2-13.8-13.8S80.4,87.3,88,87.3s13.8,6.2,13.8,13.8S95.6,114.8,88,114.8z M88,89.8    c-6.2,0-11.2,5-11.2,11.2s5,11.2,11.2,11.2s11.2-5,11.2-11.2S94.2,89.8,88,89.8z" fill="#0B1010"/></g><g><path d="M67.2,73.7H11.7c-0.7,0-1.2-0.6-1.2-1.2s0.6-1.2,1.2-1.2h55.5c0.7,0,1.2,0.6,1.2,1.2S67.9,73.7,67.2,73.7z    " fill="#0B1010"/></g><g><path d="M103.4,73.7h-15c-0.7,0-1.2-0.6-1.2-1.2s0.6-1.2,1.2-1.2h15c0.7,0,1.2,0.6,1.2,1.2S104,73.7,103.4,73.7z" fill="#0B1010"/></g><g><path d="M58,94.2H22c-0.7,0-1.2-0.6-1.2-1.2s0.6-1.2,1.2-1.2h36c0.7,0,1.2,0.6,1.2,1.2S58.7,94.2,58,94.2z" fill="#0B1010"/></g><g><path d="M58,102.3H22c-0.7,0-1.2-0.6-1.2-1.2s0.6-1.2,1.2-1.2h36c0.7,0,1.2,0.6,1.2,1.2S58.7,102.3,58,102.3z" fill="#0B1010"/></g><g><path d="M58,110.5H22c-0.7,0-1.2-0.6-1.2-1.2s0.6-1.2,1.2-1.2h36c0.7,0,1.2,0.6,1.2,1.2S58.7,110.5,58,110.5z" fill="#0B1010"/></g><g><path d="M124,66.3H4c-0.7,0-1.2-0.6-1.2-1.2s0.6-1.2,1.2-1.2h120c0.7,0,1.2,0.6,1.2,1.2S124.7,66.3,124,66.3z" fill="#0B1010"/></g><g opacity="0.3"><path d="M109,34H19c-8.3,0-15,6.7-15,15v48.7c4.1,3.3,9.3,5.3,15,5.3h40c5.7,0,11.2-2,15.5-5.7l0.2-0.1l1.1-1.1    L123.9,48C123.4,40.2,116.9,34,109,34z" fill="#060808"/></g><g><path d="M109,125.2H19c-9,0-16.2-7.3-16.2-16.2V49c0-9,7.3-16.2,16.2-16.2h90c9,0,16.2,7.3,16.2,16.2v60    C125.2,118,118,125.2,109,125.2z M19,35.2c-7.6,0-13.8,6.2-13.8,13.8v60c0,7.6,6.2,13.8,13.8,13.8h90c7.6,0,13.8-6.2,13.8-13.8V49    c0-7.6-6.2-13.8-13.8-13.8H19z" fill="#0B1010"/></g><g><path d="M109,4H19C10.7,4,4,10.7,4,19v60c0,8.3,6.7,15,15,15h40c4.1,0,7.8-1.6,10.5-4.3h0c0,0,0,0,0,0l0,0l0.1-0.1    l0,0c0,0,0,0,0,0h0l50-50c0,0,0.1-0.1,0.1-0.1c2.6-2.7,4.2-6.4,4.2-10.4V19C124,10.7,117.3,4,109,4z" fill="#2AA590"/></g><g><path d="M59,95.2H19C10,95.2,2.8,88,2.8,79V19C2.8,10,10,2.8,19,2.8h90c9,0,16.2,7.3,16.2,16.2v10    c0,4.2-1.6,8.3-4.6,11.3c0,0-0.1,0.1-0.1,0.2L70.4,90.6c0,0-0.1,0.1-0.1,0.1C67.3,93.6,63.2,95.2,59,95.2z M19,5.2    C11.4,5.2,5.2,11.4,5.2,19v60c0,7.6,6.2,13.8,13.8,13.8h40c3.6,0,7-1.4,9.6-3.9c0,0,0.1-0.1,0.1-0.1l0,0l50.1-50.1    c2.5-2.6,3.9-6,3.9-9.6V19c0-7.6-6.2-13.8-13.8-13.8H19z" fill="#0B1010"/></g><g><path d="M73.8,86.2H23c-0.7,0-1.2-0.6-1.2-1.2c0-4.8-3.9-8.8-8.8-8.8c-0.7,0-1.2-0.6-1.2-1.2V23    c0-0.7,0.6-1.2,1.2-1.2c4.8,0,8.8-3.9,8.8-8.8c0-0.7,0.6-1.2,1.2-1.2h82c0.7,0,1.2,0.6,1.2,1.2c0,4.8,3.9,8.8,8.8,8.8    c0.7,0,1.2,0.6,1.2,1.2v20.7c0,0.7-0.6,1.2-1.2,1.2s-1.2-0.6-1.2-1.2V24.2c-5.2-0.6-9.4-4.7-9.9-9.9H24.2    c-0.6,5.2-4.7,9.4-9.9,9.9v49.6c5.2,0.6,9.4,4.7,9.9,9.9h49.6c0.7,0,1.2,0.6,1.2,1.2S74.4,86.2,73.8,86.2z" fill="#0B1010"/></g><g opacity="0.3"><path d="M88.8,45.7c2.1,16.4-11.7,30.1-28,28c-11.1-1.4-20.1-10.4-21.5-21.5c-2.1-16.4,11.7-30.1,28-28    C78.4,25.6,87.4,34.6,88.8,45.7z" fill="#F8F9F7"/></g><g><path d="M70.6,51.2c-0.5-0.9-1.2-1.6-2-2.1c-0.7-0.5-1.5-0.8-2.5-1.1c-0.7-0.2-1.5-0.4-2.3-0.7    c-0.7-0.2-1.4-0.4-2-0.7c-0.5-0.2-0.9-0.5-1.3-0.8c-0.3-0.3-0.6-0.6-0.8-1.1c-0.1-0.3-0.3-0.9-0.3-1.9c0-0.5,0.1-1,0.3-1.5    c0.2-0.5,0.4-0.9,0.8-1.3c0.3-0.4,0.8-0.7,1.4-0.9c1.2-0.5,3.1-0.5,4.2,0c0.5,0.2,1,0.6,1.3,1c0.4,0.4,0.6,0.9,0.8,1.5    c0.2,0.7,1,1.1,1.8,0.9c0.7-0.2,1.1-1,0.9-1.8c-0.3-0.9-0.7-1.7-1.3-2.4c-0.6-0.7-1.4-1.3-2.3-1.7c-0.5-0.2-1.2-0.4-1.8-0.5v-0.7    c0-0.8-0.6-1.4-1.4-1.4c-0.8,0-1.4,0.6-1.4,1.4v0.7c-0.6,0.1-1.3,0.2-1.8,0.5c-0.9,0.4-1.7,0.9-2.3,1.6c-0.6,0.6-1.1,1.4-1.4,2.2    c-0.3,0.8-0.4,1.6-0.4,2.5c0,1.2,0.2,2.2,0.6,3c0.4,0.8,0.9,1.5,1.5,2c0.6,0.5,1.3,1,2.1,1.3c0.7,0.3,1.5,0.6,2.3,0.8    c0.8,0.2,1.5,0.4,2.2,0.6c0.7,0.2,1.2,0.5,1.8,0.8c0.5,0.3,0.9,0.7,1.2,1.2c0.3,0.5,0.5,1.2,0.5,2.1c0,0.6-0.1,1.2-0.3,1.8    c-0.2,0.5-0.4,1-0.8,1.4c-0.3,0.4-0.8,0.7-1.3,0.9c-1,0.4-2.6,0.5-3.9,0.1c-0.6-0.2-1.1-0.5-1.5-0.9c-0.4-0.4-0.8-1-1.1-1.6    c-0.3-0.7-1.1-1-1.8-0.7c-0.7,0.3-1,1.1-0.7,1.8c0.5,1,1.1,1.9,1.8,2.6c0.7,0.7,1.6,1.2,2.5,1.5c0.3,0.1,0.7,0.2,1,0.2v0.8    c0,0.8,0.6,1.4,1.4,1.4c0.8,0,1.4-0.6,1.4-1.4v-0.8c0.7-0.1,1.4-0.2,2-0.5c0.9-0.4,1.7-0.9,2.4-1.6c0.6-0.7,1.1-1.5,1.4-2.4    c0.3-0.8,0.4-1.7,0.4-2.6C71.4,53.3,71.2,52.1,70.6,51.2z" fill="#2D2E2D"/></g><g><path d="M64,75.2c-1.1,0-2.3-0.1-3.4-0.2c-11.6-1.5-21.2-11-22.6-22.6c-1-7.5,1.4-15.1,6.3-20.8    c5.7-6.5,14.4-9.8,23.1-8.7c11.6,1.5,21.2,11,22.6,22.6c1,7.5-1.4,15.1-6.3,20.8C78.7,72,71.5,75.2,64,75.2z M64,25.2    c-6.8,0-13.3,2.9-17.8,8c-4.6,5.2-6.6,11.9-5.7,18.8c1.3,10.5,9.9,19.1,20.5,20.5c7.9,1,15.7-2,20.9-7.9    c4.6-5.2,6.6-11.9,5.7-18.8c-1.3-10.5-9.9-19.1-20.5-20.5C66.1,25.3,65,25.2,64,25.2z" fill="#0B1010"/></g><g><path d="M89,44c-8.3,0-15,6.7-15,15v20c0,4.1-1.7,7.9-4.4,10.6l50-50c-2.7,2.7-6.5,4.4-10.6,4.4H89z" fill="#2AA590"/></g><g opacity="0.3"><path d="M89,44c-8.3,0-15,6.7-15,15v20c0,4.1-1.7,7.9-4.4,10.6l50-50c-2.7,2.7-6.5,4.4-10.6,4.4H89z" fill="#060808"/></g><g><path d="M69.6,90.8c-0.3,0-0.6-0.1-0.9-0.4c-0.5-0.5-0.5-1.3,0-1.8c2.6-2.6,4-6,4-9.7V59c0-9,7.3-16.2,16.2-16.2    h20c3.7,0,7.1-1.4,9.7-4c0.5-0.5,1.3-0.5,1.8,0c0.5,0.5,0.5,1.3,0,1.8l-50,50c0,0,0,0,0,0l0,0C70.3,90.7,69.9,90.8,69.6,90.8z     M89,45.2c-7.6,0-13.8,6.2-13.8,13.8v20c0,1.2-0.1,2.4-0.4,3.6l37.7-37.7c-1.2,0.3-2.4,0.4-3.6,0.4H89z" fill="#0B1010"/></g><g><path d="M83,77.2c-0.7,0-1.2-0.6-1.2-1.2V63c0-0.7,0.6-1.2,1.2-1.2c4.8,0,8.8-3.9,8.8-8.8c0-0.7,0.6-1.2,1.2-1.2    h13c0.7,0,1.2,0.6,1.2,1.2s-0.6,1.2-1.2,1.2H94.2c-0.6,5.2-4.7,9.4-9.9,9.9V76C84.2,76.7,83.7,77.2,83,77.2z" fill="#0B1010"/></g></g></svg>