<?xml version="1.0" ?><!DOCTYPE svg  PUBLIC '-//W3C//DTD SVG 1.1//EN'  'http://www.w3.org/Graphics/SVG/1.1/DTD/svg11.dtd'><svg enable-background="new 0 0 128 128" id="Слой_1" version="1.1" viewBox="0 0 128 128" xml:space="preserve" xmlns="http://www.w3.org/2000/svg" xmlns:xlink="http://www.w3.org/1999/xlink"><g><g><path d="M27,20c0,18.9,8.6,35,25.1,41.7c2.5,1,2.5,4.5,0,5.6C35.6,74,27,90.1,27,109v5h74v-5    c0-18.9-8.6-35-25.1-41.7c-2.5-1-2.5-4.5,0-5.6C92.4,55,101,38.9,101,20v-6H27V20z" fill="#65C1C2"/></g><g><path d="M33,108c0.4-15.6,28.3-12,27-43.5c-0.2-3.7-2.2-7-5.6-8.3c-9-3.7-13.1-10.4-17.2-18.7    c-2.7-5.3,56.5-5.8,54.1-0.6c-4.1,8.6-8.3,15.5-17.6,19.3c-3.4,1.4-5.6,4.7-5.6,8.3c0,32.8,26.6,27.9,27,43.5H33z" fill="#F6F3E0"/></g><g><path d="M95,109.2C95,109.3,95,109.3,95,109.2H33c-0.3,0-0.7-0.1-0.9-0.4s-0.4-0.6-0.4-0.9    c0.2-7,5.4-10.5,10.9-14.2c7.9-5.3,16.8-11.3,16.1-29.3c-0.1-3.3-2-6.1-4.8-7.2c-9.6-3.9-13.8-11-17.9-19.2    c-0.3-0.6-0.3-1.3,0.1-1.9c0.6-1,2.4-2.3,11-3.2c5.3-0.6,12.2-0.9,19.2-0.9c20.6,0,25.1,2.2,25.9,3.5c0.4,0.6,0.4,1.3,0.1,1.9    c-3.9,8.2-8.2,15.9-18.2,19.9c-2.9,1.2-4.8,4-4.8,7.2c0,18.8,8.8,24.6,16.5,29.7c5.2,3.4,10.2,6.7,10.4,13.5c0,0.1,0,0.2,0,0.3    C96.3,108.7,95.7,109.2,95,109.2z M34.4,106.8h59.3c-0.7-4.8-4.5-7.3-9.2-10.4c-7.9-5.2-17.7-11.6-17.7-31.8    c0-4.2,2.5-7.9,6.4-9.5c9-3.6,12.9-10.4,16.7-18.3c-1.6-1-9.5-2.2-23.6-2.2c-15.2,0-26,1.4-27.9,2.8c3.8,7.6,7.8,14.2,16.4,17.7    c3.8,1.5,6.2,5.1,6.4,9.4c0.8,19.4-9.2,26.1-17.2,31.4C39.1,99.2,35.1,101.9,34.4,106.8z" fill="#0B1010"/></g><g opacity="0.4"><path d="M62.1,67.3c2.5-1,2.5-4.5,0-5.6C45.6,55,37,38.9,37,20v-6H27v6c0,18.9,8.6,35,25.1,41.7    c2.5,1,2.5,4.5,0,5.6C35.6,74,27,90.1,27,109v5h10v-5C37,90.1,45.6,74,62.1,67.3z" fill="#FFFFFF"/></g><g opacity="0.8"><path d="M52,58.5c-0.5,0-1-0.2-1.5-0.5c-10.6-8-16-20.8-16-38c0-1.4,1.1-2.5,2.5-2.5s2.5,1.1,2.5,2.5    c0,15.6,4.7,27,14,34c1.1,0.8,1.3,2.4,0.5,3.5C53.5,58.2,52.8,58.5,52,58.5z" fill="#FAFBF3"/></g><g><path d="M101,115.2H27c-0.7,0-1.2-0.6-1.2-1.2v-5c0-20.3,9.7-36.3,25.9-42.9c1-0.4,1.1-1.3,1.1-1.6    c0-0.3-0.1-1.2-1.1-1.6C35.4,56.3,25.8,40.3,25.8,20v-6c0-0.7,0.6-1.2,1.2-1.2h74c0.7,0,1.2,0.6,1.2,1.2v6    c0,20.3-9.7,36.3-25.9,42.9c-1,0.4-1.1,1.3-1.1,1.6c0,0.3,0.1,1.2,1.1,1.6c16.2,6.6,25.9,22.6,25.9,42.9v5    C102.2,114.7,101.7,115.2,101,115.2z M28.2,112.8h71.5V109c0-19.2-9.1-34.4-24.3-40.6c-1.6-0.7-2.7-2.2-2.7-3.9s1-3.3,2.7-3.9    C90.7,54.4,99.8,39.2,99.8,20v-4.8H28.2V20c0,19.2,9.1,34.4,24.3,40.6c1.6,0.7,2.7,2.2,2.7,3.9s-1,3.3-2.7,3.9    C37.3,74.6,28.2,89.8,28.2,109V112.8z" fill="#0B1010"/></g><g><path d="M101,124H27c-2.8,0-5-2.2-5-5v0c0-2.8,2.2-5,5-5h74c2.8,0,5,2.2,5,5v0C106,121.8,103.8,124,101,124z" fill="#AB8C66"/></g><g><path d="M101,14H27c-2.8,0-5-2.2-5-5v0c0-2.8,2.2-5,5-5h74c2.8,0,5,2.2,5,5v0C106,11.8,103.8,14,101,14z" fill="#AB8C66"/></g><g><path d="M101,125.2H27c-3.4,0-6.2-2.8-6.2-6.2s2.8-6.2,6.2-6.2h74c3.4,0,6.2,2.8,6.2,6.2S104.4,125.2,101,125.2z     M27,115.2c-2.1,0-3.8,1.7-3.8,3.8s1.7,3.8,3.8,3.8h74c2.1,0,3.8-1.7,3.8-3.8s-1.7-3.8-3.8-3.8H27z" fill="#0B1010"/></g><g><path d="M101,15.2H27c-3.4,0-6.2-2.8-6.2-6.2s2.8-6.2,6.2-6.2h74c3.4,0,6.2,2.8,6.2,6.2S104.4,15.2,101,15.2z     M27,5.2c-2.1,0-3.8,1.7-3.8,3.8s1.7,3.8,3.8,3.8h74c2.1,0,3.8-1.7,3.8-3.8s-1.7-3.8-3.8-3.8H27z" fill="#0B1010"/></g></g></svg>