<?xml version="1.0" ?><!DOCTYPE svg  PUBLIC '-//W3C//DTD SVG 1.1//EN'  'http://www.w3.org/Graphics/SVG/1.1/DTD/svg11.dtd'><svg enable-background="new 0 0 128 128" id="Слой_1" version="1.1" viewBox="0 0 128 128" xml:space="preserve" xmlns="http://www.w3.org/2000/svg" xmlns:xlink="http://www.w3.org/1999/xlink"><g><g><circle cx="61.5" cy="66.5" fill="#65C1C2" r="40"/></g><g><path d="M61.5,107.8c-22.7,0-41.2-18.5-41.2-41.2s18.5-41.2,41.2-41.2s41.2,18.5,41.2,41.2S84.2,107.8,61.5,107.8z     M61.5,27.8c-21.4,0-38.8,17.4-38.8,38.8s17.4,38.8,38.8,38.8s38.8-17.4,38.8-38.8S82.9,27.8,61.5,27.8z" fill="#0B1010"/></g><g><g><path d="M105.1,101.2c-0.3,0-0.5-0.1-0.8-0.3c-0.5-0.4-0.6-1.2-0.2-1.8c16.4-21.3,14.4-51.7-4.6-70.7     C79.2,8.2,46.7,7.4,25.4,26.7c-0.5,0.5-1.3,0.4-1.8-0.1c-0.5-0.5-0.4-1.3,0.1-1.8C46,4.6,80,5.5,101.3,26.7     c19.9,19.9,22,51.7,4.8,74C105.9,101.1,105.5,101.2,105.1,101.2z" fill="#0B1010"/></g><g><g><path d="M37.7,27.2L37.7,27.2c0-0.7-0.5-1.3-1.2-1.3l-9.7-0.5c-0.7,0-1.3-0.7-1.2-1.4l1.2-9.7      c0.1-0.7-0.4-1.3-1.1-1.4l0,0c-0.7-0.1-1.3,0.4-1.4,1.1l-1.6,12.3c-0.1,0.7,0.4,1.4,1.2,1.4l12.4,0.7      C37,28.4,37.6,27.8,37.7,27.2z" fill="#0B1010"/></g></g></g><g><g><path d="M61.5,122.8c-14.4,0-28.8-5.5-39.8-16.5c-19.9-19.9-22-51.8-4.8-74.1c0.4-0.5,1.2-0.6,1.8-0.2     c0.5,0.4,0.6,1.2,0.2,1.8C2.5,55,4.4,85.5,23.5,104.5c20.3,20.3,52.9,21.1,74.1,1.8c0.5-0.5,1.3-0.4,1.8,0.1     c0.5,0.5,0.4,1.3-0.1,1.8C88.5,117.9,75,122.8,61.5,122.8z" fill="#0B1010"/></g><g><g><path d="M85.3,105.8L85.3,105.8c0,0.7,0.5,1.3,1.2,1.3l9.7,0.5c0.7,0,1.3,0.7,1.2,1.4l-1.2,9.7      c-0.1,0.7,0.4,1.3,1.1,1.4l0,0c0.7,0.1,1.3-0.4,1.4-1.1l1.6-12.3c0.1-0.7-0.4-1.4-1.2-1.4l-12.4-0.7      C86,104.6,85.4,105.2,85.3,105.8z" fill="#0B1010"/></g></g></g><g><path d="M91.1,94.3c-0.2,0-0.4,0-0.6-0.2c-7.4-4.1-18-6.4-29-6.4c-11,0-21.5,2.3-28.9,6.4    c-0.6,0.3-1.4,0.1-1.7-0.5s-0.1-1.4,0.5-1.7c7.7-4.2,18.7-6.7,30.1-6.7C73,85.2,84,87.7,91.7,92c0.6,0.3,0.8,1.1,0.5,1.7    C92,94.1,91.6,94.3,91.1,94.3z" fill="#0B1010"/></g><g><path d="M61.5,47.8c-11.6,0-22.6-2.5-30.4-6.8c-0.6-0.3-0.8-1.1-0.5-1.7c0.3-0.6,1.1-0.8,1.7-0.5    c7.4,4.1,18,6.5,29.2,6.5c11.1,0,21.7-2.3,29.1-6.4c0.6-0.3,1.4-0.1,1.7,0.5c0.3,0.6,0.1,1.4-0.5,1.7C84,45.3,73,47.8,61.5,47.8z" fill="#0B1010"/></g><g><path d="M61.5,107.8c-11.9,0-21.2-18.1-21.2-41.2s9.3-41.2,21.2-41.2s21.2,18.1,21.2,41.2S73.4,107.8,61.5,107.8z     M61.5,27.8c-10.3,0-18.8,17.4-18.8,38.8s8.4,38.8,18.8,38.8s18.8-17.4,18.8-38.8S71.8,27.8,61.5,27.8z" fill="#0B1010"/></g><g><path d="M101.5,67.8h-80c-0.7,0-1.2-0.6-1.2-1.2s0.6-1.2,1.2-1.2h80c0.7,0,1.2,0.6,1.2,1.2S102.2,67.8,101.5,67.8z    " fill="#0B1010"/></g><g><path d="M61.5,107.8c-0.7,0-1.2-0.6-1.2-1.2v-80c0-0.7,0.6-1.2,1.2-1.2s1.2,0.6,1.2,1.2v80    C62.8,107.2,62.2,107.8,61.5,107.8z" fill="#0B1010"/></g><g opacity="0.2"><path d="M61.5,26.5c-2.7,0-5.3,0.3-7.9,0.8c-0.7,3-1.1,6-1.1,9.2c0,21.5,17.5,39,39,39c3.2,0,6.3-0.4,9.2-1.1    c0.5-2.6,0.8-5.2,0.8-7.9C101.5,44.4,83.6,26.5,61.5,26.5z" fill="#04080A"/></g><g><circle cx="91.5" cy="36.5" fill="#EFDE59" r="30"/></g><g><path d="M91.5,67.8c-17.2,0-31.2-14-31.2-31.2s14-31.2,31.2-31.2s31.2,14,31.2,31.2S108.7,67.8,91.5,67.8z     M91.5,7.8c-15.9,0-28.8,12.9-28.8,28.8s12.9,28.8,28.8,28.8s28.8-12.9,28.8-28.8S107.4,7.8,91.5,7.8z" fill="#0B1010"/></g><g opacity="0.3"><path d="M91.5,13.2c-12.8,0-23.3,10.4-23.3,23.3s10.4,23.2,23.3,23.2s23.3-10.4,23.3-23.2S104.3,13.2,91.5,13.2z" fill="#F8F9F7"/></g><g><path d="M91.5,61C78,61,67,50,67,36.5S78,12,91.5,12S116,23,116,36.5S105,61,91.5,61z M91.5,14.5    c-12.1,0-22,9.9-22,22s9.9,22,22,22s22-9.9,22-22S103.6,14.5,91.5,14.5z" fill="#0B1010"/></g><g><path d="M95.5,36.7c-0.6-0.4-1.4-0.8-2.2-1c-0.7-0.2-1.4-0.4-2.1-0.6c-0.6-0.2-1.3-0.4-1.9-0.6    c-0.5-0.2-0.9-0.4-1.3-0.7c-0.3-0.3-0.6-0.6-0.8-1c-0.1-0.3-0.3-0.8-0.3-1.8c0-0.5,0.1-1,0.3-1.4c0.2-0.4,0.4-0.9,0.7-1.2    c0.3-0.4,0.8-0.6,1.3-0.9c0.6-0.2,1.2-0.4,2-0.4c0.8,0,1.4,0.1,2,0.4c0.5,0.2,0.9,0.5,1.3,0.9c0.3,0.4,0.6,0.9,0.8,1.4    c0.2,0.6,0.8,0.9,1.4,0.7c0.6-0.2,0.9-0.8,0.7-1.4c-0.3-0.8-0.7-1.5-1.2-2.2c-0.5-0.6-1.2-1.1-2.1-1.5c-0.5-0.2-1.1-0.4-1.8-0.5    v-0.8c0-0.6-0.5-1.1-1.1-1.1s-1.1,0.5-1.1,1.1v0.8c-0.6,0.1-1.2,0.2-1.8,0.4c-0.8,0.3-1.5,0.8-2.1,1.4c-0.5,0.6-0.9,1.2-1.2,2    c-0.3,0.7-0.4,1.5-0.4,2.2c0,1.1,0.2,2,0.5,2.7c0.3,0.7,0.8,1.3,1.3,1.8c0.5,0.5,1.2,0.9,1.9,1.1c0.7,0.3,1.4,0.5,2.1,0.7    c0.7,0.2,1.4,0.4,2,0.6c0.6,0.2,1.2,0.4,1.6,0.7c0.5,0.3,0.8,0.7,1.1,1.2c0.3,0.5,0.4,1.2,0.4,2c0,0.6-0.1,1.2-0.3,1.7    c-0.2,0.5-0.4,1-0.8,1.3c-0.3,0.4-0.8,0.7-1.3,0.9c-0.5,0.2-1.2,0.3-1.9,0.3c-0.6,0-1.2-0.1-1.8-0.3c-0.5-0.2-1-0.4-1.4-0.8    c-0.4-0.4-0.8-0.9-1.1-1.5c-0.2-0.6-0.9-0.8-1.5-0.6c-0.6,0.2-0.8,0.9-0.6,1.5c0.4,0.9,0.9,1.7,1.6,2.3c0.7,0.6,1.4,1,2.3,1.3    c0.3,0.1,0.7,0.2,1,0.2v0.9c0,0.6,0.5,1.1,1.1,1.1s1.1-0.5,1.1-1.1v-0.8c0.7-0.1,1.3-0.2,1.9-0.5c0.8-0.3,1.5-0.8,2.1-1.4    c0.5-0.6,1-1.3,1.2-2.1c0.2-0.8,0.4-1.5,0.4-2.4c0-1.2-0.3-2.3-0.8-3.1C96.9,37.8,96.3,37.2,95.5,36.7z" fill="#2D2E2D"/></g></g></svg>